<svg xmlns="http://www.w3.org/2000/svg" viewBox="0 80 380 380" role="img" aria-label="Breath of Life">
<title>Breath of Life</title>
<desc>Et mørkt rum hvor kernen, aura, ringe og otte buede stråler ånder synkront. Hver stråle bugter sig med to rundinger — som et levende åndedrag der ikke følger lige linjer.</desc>

<defs>
<style>
@keyframes core-r { 0%, 100% { r: 36px; } 50% { r: 46px; } }
@keyframes aura-r { 0%, 100% { rx: 158px; ry: 158px; } 50% { rx: 182px; ry: 182px; } }
@keyframes ring-a { 0%, 100% { r: 62px; } 50% { r: 74px; } }
@keyframes ring-b { 0%, 100% { r: 88px; } 50% { r: 104px; } }
@keyframes ring-c { 0%, 100% { r: 118px; } 50% { r: 138px; } }
/* Strålerne strækker sig udad ved peak — alle skalerer radielt sammen */
@keyframes rays-breathe {
  0%, 100% { transform: scale(0.92); }
  50% { transform: scale(1.18); }
}
.core { animation: core-r 8s ease-in-out infinite; }
.aura { animation: aura-r 8s ease-in-out infinite; }
.r-a { animation: ring-a 8s ease-in-out infinite; }
.r-b { animation: ring-b 8s ease-in-out infinite; }
.r-c { animation: ring-c 8s ease-in-out infinite; }
.rays-group {
  animation: rays-breathe 8s ease-in-out infinite;
  transform-origin: 190px 270px;
  transform-box: view-box;
}
@media (prefers-reduced-motion: reduce) {
  .core, .aura, .r-a, .r-b, .r-c, .rays-group { animation: none; }
}
</style>
<radialGradient id="well" cx="50%" cy="42%" r="65%">
<stop offset="0%" stop-color="#1f2a35"/>
<stop offset="55%" stop-color="#131a22"/>
<stop offset="100%" stop-color="#0c1218"/>
</radialGradient>
<radialGradient id="core-g" cx="50%" cy="50%" r="50%">
<stop offset="0%" stop-color="#f8f8f8" stop-opacity="1"/>
<stop offset="30%" stop-color="#e0e0e0" stop-opacity="0.6"/>
<stop offset="70%" stop-color="#b0b0b0" stop-opacity="0.15"/>
<stop offset="100%" stop-color="#b0b0b0" stop-opacity="0"/>
</radialGradient>
<radialGradient id="aura-g" cx="50%" cy="50%" r="50%">
<stop offset="0%" stop-color="#dcdcdc" stop-opacity="0.28"/>
<stop offset="55%" stop-color="#909090" stop-opacity="0.07"/>
<stop offset="100%" stop-color="#909090" stop-opacity="0"/>
</radialGradient>
</defs>

<rect x="0" y="0" width="380" height="640" fill="url(#well)"/>

<ellipse class="aura" cx="190" cy="270" rx="170" ry="170" fill="url(#aura-g)"/>

<circle class="r-a" cx="190" cy="270" r="68" stroke="#dcdcdc" stroke-width="0.7" fill="none" opacity="0.6"/>
<circle class="r-b" cx="190" cy="270" r="96" stroke="#dcdcdc" stroke-width="0.7" fill="none" opacity="0.55"/>
<circle class="r-c" cx="190" cy="270" r="128" stroke="#dcdcdc" stroke-width="0.7" fill="none" opacity="0.5"/>

<!-- 8 buede stråler — hver med to rundinger (S-form) der gør dem levende.
     Strålerne starter ved aurakanten og rækker udad, og skalerer radielt
     med åndedraget. -->
<g class="rays-group" stroke="#dcdcdc" stroke-width="0.7" fill="none" opacity="0.6" stroke-linecap="round">
  <!-- Nord -->
  <path d="M 190 230 Q 200 215 190 195 Q 180 175 190 160"/>
  <!-- Syd -->
  <path d="M 190 310 Q 180 325 190 345 Q 200 365 190 380"/>
  <!-- Vest -->
  <path d="M 140 270 Q 125 280 105 270 Q 85 260 80 270"/>
  <!-- Øst -->
  <path d="M 240 270 Q 255 260 275 270 Q 295 280 300 270"/>
  <!-- NV -->
  <path d="M 152 230 Q 138 222 130 210 Q 118 198 100 178"/>
  <!-- NØ -->
  <path d="M 228 230 Q 242 222 250 210 Q 262 198 280 178"/>
  <!-- SV -->
  <path d="M 152 310 Q 138 318 130 330 Q 118 342 100 362"/>
  <!-- SØ -->
  <path d="M 228 310 Q 242 318 250 330 Q 262 342 280 362"/>
</g>

<circle class="core" cx="190" cy="270" r="42" fill="url(#core-g)"/>

<line x1="140" y1="520" x2="240" y2="520" stroke="#b0b0b0" stroke-width="0.5" opacity="0.5"/>
<text x="190" y="555" text-anchor="middle" font-family="Cinzel, serif" font-size="12" letter-spacing="4" fill="#e0e0e0" opacity="0.95">BREATH OF LIFE</text>
<text x="190" y="580" text-anchor="middle" font-family="Cormorant Garamond, Georgia, serif" font-size="13" font-style="italic" fill="#b0b0b0" opacity="0.8">den første manifestation</text>
</svg>
