<svg xmlns="http://www.w3.org/2000/svg" viewBox="0 0 380 640" role="img" aria-label="Motion Present">
<title>Motion Present</title>
<desc>Et mørkt rum hvor kernen og auraen ånder, og de spredte lyspunkter vokser og mindskes i radius synkront</desc>

<defs>
<style>
@keyframes core-r { 0%, 100% { r: 36px; } 50% { r: 46px; } }
@keyframes aura-r { 0%, 100% { rx: 158px; ry: 158px; } 50% { rx: 182px; ry: 182px; } }
@keyframes dot-big { 0%, 100% { r: 0.6px; } 50% { r: 1.3px; } }
@keyframes dot-mid { 0%, 100% { r: 0.5px; } 50% { r: 1.1px; } }
@keyframes dot-sml { 0%, 100% { r: 0.4px; } 50% { r: 0.95px; } }
.core { animation: core-r 8s ease-in-out infinite; }
.aura { animation: aura-r 8s ease-in-out infinite; }
.d-big { animation: dot-big 8s ease-in-out infinite; }
.d-mid { animation: dot-mid 8s ease-in-out infinite; }
.d-sml { animation: dot-sml 8s ease-in-out infinite; }
@media (prefers-reduced-motion: reduce) {
  .core, .aura, .d-big, .d-mid, .d-sml { animation: none; }
}
</style>
<radialGradient id="well" cx="50%" cy="42%" r="65%">
<stop offset="0%" stop-color="#2a3847"/>
<stop offset="55%" stop-color="#1d2731"/>
<stop offset="100%" stop-color="#141b22"/>
</radialGradient>
<radialGradient id="core-g" cx="50%" cy="50%" r="50%">
<stop offset="0%" stop-color="#faf4e8" stop-opacity="1"/>
<stop offset="30%" stop-color="#f0e2c8" stop-opacity="0.6"/>
<stop offset="70%" stop-color="#d4b98f" stop-opacity="0.15"/>
<stop offset="100%" stop-color="#c9b8a0" stop-opacity="0"/>
</radialGradient>
<radialGradient id="aura-g" cx="50%" cy="50%" r="50%">
<stop offset="0%" stop-color="#e8dfcf" stop-opacity="0.28"/>
<stop offset="55%" stop-color="#a89880" stop-opacity="0.07"/>
<stop offset="100%" stop-color="#a89880" stop-opacity="0"/>
</radialGradient>
</defs>

<rect x="0" y="0" width="380" height="640" fill="url(#well)"/>

<ellipse class="aura" cx="190" cy="270" rx="170" ry="170" fill="url(#aura-g)"/>

<g fill="#faf4e8">
<circle class="d-big" cx="110" cy="168" r="1" opacity="0.78"/>
<circle class="d-mid" cx="148" cy="142" r="0.8" opacity="0.68"/>
<circle class="d-sml" cx="178" cy="158" r="0.7" opacity="0.6"/>
<circle class="d-big" cx="215" cy="135" r="1" opacity="0.78"/>
<circle class="d-mid" cx="248" cy="160" r="0.8" opacity="0.68"/>
<circle class="d-sml" cx="275" cy="148" r="0.7" opacity="0.58"/>

<circle class="d-mid" cx="88" cy="195" r="0.8" opacity="0.68"/>
<circle class="d-big" cx="128" cy="205" r="1" opacity="0.8"/>
<circle class="d-sml" cx="155" cy="192" r="0.7" opacity="0.58"/>
<circle class="d-mid" cx="235" cy="198" r="0.8" opacity="0.68"/>
<circle class="d-big" cx="268" cy="188" r="1" opacity="0.78"/>
<circle class="d-sml" cx="300" cy="210" r="0.7" opacity="0.58"/>

<circle class="d-big" cx="72" cy="238" r="1" opacity="0.8"/>
<circle class="d-mid" cx="105" cy="248" r="0.8" opacity="0.68"/>
<circle class="d-sml" cx="138" cy="232" r="0.7" opacity="0.58"/>
<circle class="d-sml" cx="245" cy="235" r="0.7" opacity="0.6"/>
<circle class="d-big" cx="278" cy="245" r="1" opacity="0.8"/>
<circle class="d-mid" cx="312" cy="242" r="0.8" opacity="0.68"/>

<circle class="d-mid" cx="82" cy="278" r="0.8" opacity="0.68"/>
<circle class="d-big" cx="118" cy="290" r="1" opacity="0.8"/>
<circle class="d-big" cx="255" cy="285" r="1" opacity="0.8"/>
<circle class="d-mid" cx="292" cy="275" r="0.8" opacity="0.68"/>
<circle class="d-sml" cx="320" cy="290" r="0.7" opacity="0.6"/>

<circle class="d-sml" cx="72" cy="318" r="0.7" opacity="0.6"/>
<circle class="d-big" cx="102" cy="325" r="1" opacity="0.8"/>
<circle class="d-mid" cx="135" cy="318" r="0.8" opacity="0.68"/>
<circle class="d-sml" cx="248" cy="322" r="0.7" opacity="0.6"/>
<circle class="d-mid" cx="278" cy="332" r="0.8" opacity="0.68"/>
<circle class="d-big" cx="308" cy="322" r="1" opacity="0.8"/>

<circle class="d-mid" cx="95" cy="358" r="0.8" opacity="0.68"/>
<circle class="d-sml" cx="130" cy="372" r="0.7" opacity="0.58"/>
<circle class="d-big" cx="162" cy="382" r="1" opacity="0.78"/>
<circle class="d-mid" cx="218" cy="385" r="0.8" opacity="0.68"/>
<circle class="d-sml" cx="248" cy="370" r="0.7" opacity="0.58"/>
<circle class="d-big" cx="282" cy="362" r="1" opacity="0.78"/>

<circle class="d-mid" cx="120" cy="402" r="0.8" opacity="0.65"/>
<circle class="d-big" cx="158" cy="415" r="1" opacity="0.78"/>
<circle class="d-mid" cx="225" cy="412" r="0.8" opacity="0.65"/>
<circle class="d-sml" cx="258" cy="402" r="0.7" opacity="0.55"/>
</g>

<circle class="core" cx="190" cy="270" r="42" fill="url(#core-g)"/>

<line x1="140" y1="520" x2="240" y2="520" stroke="#c9b8a0" stroke-width="0.5" opacity="0.5"/>
<text x="190" y="555" text-anchor="middle" font-family="Cinzel, serif" font-size="12" letter-spacing="4" fill="#f0e2c8" opacity="0.95">MOTION PRESENT</text>
<text x="190" y="580" text-anchor="middle" font-family="Cormorant Garamond, Georgia, serif" font-size="13" font-style="italic" fill="#c9b8a0" opacity="0.8">øjeblikkets udtryk</text>
</svg>
