<svg xmlns="http://www.w3.org/2000/svg" viewBox="0 80 380 380" role="img" aria-label="Fulcrum">
<defs>
<style>
@keyframes core-r { 0%, 100% { r: 36px; } 50% { r: 46px; } }
@keyframes aura-r { 0%, 100% { rx: 158px; ry: 158px; } 50% { rx: 182px; ry: 182px; } }
@keyframes ring-a { 0%, 100% { r: 88px; } 50% { r: 104px; } }
/* Strålerne strækker sig udefra ind mod kernen — ved peak trækker de sig sammen */
@keyframes rays-pulse {
  0%, 100% { transform: scale(1.05); }
  50% { transform: scale(0.85); }
}
.core { animation: core-r 8s ease-in-out infinite; }
.aura { animation: aura-r 8s ease-in-out infinite; }
.r-a { animation: ring-a 8s ease-in-out infinite; }
.rays-group {
  animation: rays-pulse 8s ease-in-out infinite;
  transform-origin: 190px 270px;
  transform-box: view-box;
}
@media (prefers-reduced-motion: reduce) {
  .core, .aura, .r-a, .rays-group { animation: none; }
}
</style>
<radialGradient id="well" cx="50%" cy="42%" r="65%">
<stop offset="0%" stop-color="#1f2a35"/>
<stop offset="55%" stop-color="#131a22"/>
<stop offset="100%" stop-color="#0c1218"/>
</radialGradient>
<radialGradient id="core-g" cx="50%" cy="50%" r="50%">
<stop offset="0%" stop-color="#f8f8f8" stop-opacity="1"/>
<stop offset="30%" stop-color="#e0e0e0" stop-opacity="0.6"/>
<stop offset="70%" stop-color="#b0b0b0" stop-opacity="0.15"/>
<stop offset="100%" stop-color="#b0b0b0" stop-opacity="0"/>
</radialGradient>
<radialGradient id="aura-g" cx="50%" cy="50%" r="50%">
<stop offset="0%" stop-color="#dcdcdc" stop-opacity="0.28"/>
<stop offset="55%" stop-color="#909090" stop-opacity="0.07"/>
<stop offset="100%" stop-color="#909090" stop-opacity="0"/>
</radialGradient>
</defs>

<rect x="0" y="0" width="380" height="640" fill="url(#well)"/>

<ellipse class="aura" cx="190" cy="270" rx="170" ry="170" fill="url(#aura-g)"/>

<circle class="r-a" cx="190" cy="270" r="96" stroke="#dcdcdc" stroke-width="0.7" fill="none" opacity="0.45"/>

<!-- 8 buede stråler — hver med to rundinger så de føles levende, ikke
     mekaniske. De peger ind mod kernen som omdrejningspunktet. -->
<g class="rays-group" stroke="#dcdcdc" stroke-width="0.7" fill="none" opacity="0.65" stroke-linecap="round">
  <!-- Nord (udefra ind mod centrum) -->
  <path d="M 190 160 Q 200 175 190 195 Q 180 215 190 232"/>
  <!-- Syd -->
  <path d="M 190 380 Q 180 365 190 345 Q 200 325 190 308"/>
  <!-- Vest -->
  <path d="M 80 270 Q 95 280 115 270 Q 135 260 152 270"/>
  <!-- Øst -->
  <path d="M 300 270 Q 285 260 265 270 Q 245 280 228 270"/>
  <!-- NV -->
  <path d="M 100 178 Q 118 198 130 210 Q 142 222 155 233"/>
  <!-- NØ -->
  <path d="M 280 178 Q 262 198 250 210 Q 238 222 225 233"/>
  <!-- SV -->
  <path d="M 100 362 Q 118 342 130 330 Q 142 318 155 307"/>
  <!-- SØ -->
  <path d="M 280 362 Q 262 342 250 330 Q 238 318 225 307"/>
</g>

<circle class="core" cx="190" cy="270" r="42" fill="url(#core-g)"/>

<line x1="140" y1="520" x2="240" y2="520" stroke="#b0b0b0" stroke-width="0.5" opacity="0.5"/>
<text x="190" y="555" text-anchor="middle" font-family="Cinzel, serif" font-size="12" letter-spacing="4" fill="#e0e0e0" opacity="0.95">FULCRUM</text>
<text x="190" y="580" text-anchor="middle" font-family="Cormorant Garamond, Georgia, serif" font-size="13" font-style="italic" fill="#b0b0b0" opacity="0.8">stillepunkter der organiserer</text>
</svg>
