<svg xmlns="http://www.w3.org/2000/svg" viewBox="0 0 1000 1000" style="font-family: 'TeX Gyre Pagella', Palatino, serif;">
  <defs>
    <radialGradient id="kerneMpB" cx="50%" cy="48%" r="68%">
      <stop offset="0%" stop-color="#2C4654"/>
      <stop offset="100%" stop-color="#142730"/>
    </radialGradient>
  </defs>

  <rect width="1000" height="1000" fill="#ffffff"/>

  <g fill="none" stroke-linecap="round">
    <path d="M 500 240 Q 580 320 540 460" stroke="#506E7D" stroke-width="1.3" opacity="0.6"/>
    <path d="M 500 240 Q 580 320 540 460" stroke="#5A7685" stroke-width="1.3" opacity="0.6" transform="rotate(60 500 500)"/>
    <path d="M 500 240 Q 580 320 540 460" stroke="#647F8D" stroke-width="1.3" opacity="0.6" transform="rotate(120 500 500)"/>
    <path d="M 500 240 Q 580 320 540 460" stroke="#506E7D" stroke-width="1.3" opacity="0.6" transform="rotate(180 500 500)"/>
    <path d="M 500 240 Q 580 320 540 460" stroke="#5A7685" stroke-width="1.3" opacity="0.6" transform="rotate(240 500 500)"/>
    <path d="M 500 240 Q 580 320 540 460" stroke="#647F8D" stroke-width="1.3" opacity="0.6" transform="rotate(300 500 500)"/>
  </g>

  <circle cx="500" cy="500" r="40" fill="url(#kerneMpB)"/>

  <g font-style="italic" font-weight="500" text-anchor="middle" dominant-baseline="middle" letter-spacing="0.015em" fill="#061D2B">
    <text x="500" y="850" font-size="32" font-weight="700">Motion Present</text>
  </g>
</svg>
